PathFileType	4	(X/Y/Z)	/Users/itak/Documents/Research/Walk-IL/dataset/trc/00328_00011.trc
DataRate	CameraRate	NumFrames	NumMarkers	Units	OrigDataRate	OrigDataStartFrame	OrigNumFrames
100.000000	100.000000	4	54	mm	100.000000	0	561
Frame#	Time	RPSI			LPSI			L3			STRN			T10			C7			CLAV			RBAK			LBAK			LSHO			LUPA			LAEL			LAOL			LWTS			LWPS			LFRA			LIFD			LHPS			LHTS			RSHO			RUPA			RAEL			RAOL			RWTS			RWPS			RFRA			RIFD			RHTS			RHPS			RBHD			LFHD			RFHD			LBHD			LHIP			RHIP			RASI			LASI			LKNE			LTHI			LANK			LTIP			LTOE			LMT1			LMT5			LHEE			RKNE			RTHI			RANK			RTIP			RTOE			RMT1			RMT5			RHEE			*53			
		X1	Y1	Z1	X2	Y2	Z2	X3	Y3	Z3	X4	Y4	Z4	X5	Y5	Z5	X6	Y6	Z6	X7	Y7	Z7	X8	Y8	Z8	X9	Y9	Z9	X10	Y10	Z10	X11	Y11	Z11	X12	Y12	Z12	X13	Y13	Z13	X14	Y14	Z14	X15	Y15	Z15	X16	Y16	Z16	X17	Y17	Z17	X18	Y18	Z18	X19	Y19	Z19	X20	Y20	Z20	X21	Y21	Z21	X22	Y22	Z22	X23	Y23	Z23	X24	Y24	Z24	X25	Y25	Z25	X26	Y26	Z26	X27	Y27	Z27	X28	Y28	Z28	X29	Y29	Z29	X30	Y30	Z30	X31	Y31	Z31	X32	Y32	Z32	X33	Y33	Z33	X34	Y34	Z34	X35	Y35	Z35	X36	Y36	Z36	X37	Y37	Z37	X38	Y38	Z38	X39	Y39	Z39	X40	Y40	Z40	X41	Y41	Z41	X42	Y42	Z42	X43	Y43	Z43	X44	Y44	Z44	X45	Y45	Z45	X46	Y46	Z46	X47	Y47	Z47	X48	Y48	Z48	X49	Y49	Z49	X50	Y50	Z50	X51	Y51	Z51	X52	Y52	Z52	X53	Y53	Z53	X54	Y54	Z54	

1	0	845.5452270507812	978.3017578125	207.8156890869141	837.5744018554688	977.1480712890625	78.68319702148438	841.896484375	1034.521850585938	147.5846557617188	1071.780883789062	1212.418212890625	109.4547348022461	828.5075073242188	1156.148559570312	136.2571563720703	872.989013671875	1401.552612304688	106.2173156738281	1027.987915039062	1337.332397460938	102.4815368652344	825.2119140625	1268.630004882812	186.9862823486328	857.2221069335938	1360.378540039062	7.326416015625	939.3270874023438	1373.118530273438	-55.09675216674805	918.621826171875	1250.260986328125	-116.7944183349609	939.3809204101562	1044.633178710938	-118.8254318237305	879.0347290039062	1034.988037109375	-59.77765655517578	1035.875244140625	803.4671020507812	-66.8443603515625	993.1290893554688	790.8634643554688	-119.7495803833008	954.3441162109375	940.5905151367188	-120.7063827514648	1037.751342773438	643.3428344726562	-56.82506561279297	988.9942626953125	721.00146484375	-111.0679550170898	1045.499633789062	724.355712890625	-80.91823577880859	947.1944580078125	1391.333740234375	262.2661743164062	944.1301879882812	1332.07763671875	332.8984069824219	961.8485717773438	1069.678833007812	391.5000305175781	895.0687866210938	1053.556030273438	324.611328125	1057.497436523438	838.0821533203125	333.4879150390625	1047.602905273438	829.3775024414062	408.5915222167969	990.6088256835938	1002.501159667969	397.6273193359375	1080.185180664062	667.5746459960938	347.6023864746094	1094.889404296875	740.0690307617188	345.362060546875	1065.303344726562	745.2838745117188	408.6889343261719	927.7579345703125	1605.046264648438	177.1439056396484	1098.405517578125	1608.321899414062	57.38383102416992	1089.37451171875	1612.536254882812	158.0198364257812	913.6650390625	1595.147338867188	33.47624969482422	914.9713745117188	914.0731811523438	-29.3264331817627	930.166015625	921.5618286132812	311.5305480957031	1032.230590820312	948.1719970703125	261.1248474121094	1038.369873046875	940.3526000976562	21.22086143493652	997.2484130859375	453.7546081542969	-18.56442070007324	982.2947998046875	594.1327514648438	-28.31380081176758	903.4627685546875	40.40420150756836	0.9073420763015747	951.24853515625	239.4936065673828	-18.35135459899902	1111.841918945312	35.34577941894531	49.04159927368164	1044.608642578125	19.60234642028809	93.33132171630859	1028.54638671875	36.90739440917969	-18.43012619018555	872.5678100585938	34.36592483520508	69.60516357421875	969.9688110351562	453.3161315917969	292.4114379882812	1001.924743652344	713.1857299804688	312.9891967773438	918.2584228515625	39.73098373413086	267.3761291503906	978.79541015625	333.8433532714844	279.4768371582031	1104.067016601562	39.21324920654297	198.3749389648438	1045.189208984375	33.18192291259766	162.4526672363281	1019.508972167969	27.09221076965332	277.241455078125	863.1486206054688	41.81002426147461	225.1806488037109	nan	nan	nan	
2	0.01	845.9830322265625	978.111083984375	207.4418640136719	837.9482421875	976.9171752929688	78.31568908691406	842.3648071289062	1034.353881835938	147.1776428222656	1071.862060546875	1212.49853515625	109.3902816772461	828.6915893554688	1156.00390625	135.907958984375	872.9166870117188	1401.53759765625	106.023078918457	1028.028564453125	1337.378051757812	102.4265441894531	825.1968994140625	1268.409301757812	186.6263122558594	857.368408203125	1360.317504882812	7.013710498809814	939.5578002929688	1373.053344726562	-55.27060699462891	919.4943237304688	1250.099609375	-117.0438461303711	941.479248046875	1044.493530273438	-118.9528656005859	880.6094970703125	1034.554931640625	-60.47800064086914	1038.998779296875	804.0845336914062	-65.46872711181641	996.9821166992188	791.0787963867188	-118.7994384765625	957.147216796875	940.5328979492188	-120.4479446411133	1041.67138671875	643.8440551757812	-54.89926528930664	993.2224731445312	721.2325439453125	-109.982551574707	1049.260498046875	725.0086669921875	-79.12577819824219	947.0543212890625	1391.155517578125	262.2332153320312	944.1351928710938	1331.8154296875	332.8143920898438	962.73583984375	1069.282592773438	391.0821838378906	896.4606323242188	1052.85693359375	323.7769165039062	1059.736450195312	838.28759765625	333.0125122070312	1049.4306640625	829.4219970703125	408.1232299804688	991.72119140625	1002.264831542969	397.2035217285156	1083.52490234375	667.993896484375	347.1259155273438	1097.705200195312	740.5639038085938	345.1464233398438	1067.704833984375	745.4747924804688	408.298095703125	927.0498046875	1604.856689453125	177.4356842041016	1097.532470703125	1609.073120117188	57.5338020324707	1088.529418945312	1613.021606445312	158.2256011962891	912.812255859375	1595.185424804688	33.78961563110352	915.5217895507812	913.827392578125	-29.56207084655762	930.3482666015625	921.5816040039062	311.3235778808594	1032.46044921875	948.1712036132812	260.96337890625	1038.832153320312	940.2151489257812	21.12967300415039	995.9113159179688	453.5601501464844	-19.2425537109375	981.460205078125	594.2577514648438	-29.19529342651367	903.5425415039062	40.41209030151367	0.9095925688743591	950.6483154296875	239.407470703125	-18.49087333679199	1111.863159179688	35.07973480224609	49.04582214355469	1044.599853515625	19.52117729187012	93.41017150878906	1028.670654296875	36.66177368164062	-18.39412498474121	872.5794067382812	34.37176132202148	69.59049987792969	970.2340087890625	453.2257080078125	292.3719482421875	1002.015197753906	713.2674560546875	312.9978637695312	918.2097778320312	39.85135269165039	267.302978515625	979.0364379882812	333.8864135742188	279.2547912597656	1104.032836914062	39.54983139038086	198.6123352050781	1045.220947265625	33.25262832641602	162.51171875	1019.51953125	27.09644317626953	277.344970703125	863.18603515625	41.89651107788086	224.9853515625	nan	nan	nan	
3	0.02	846.4124145507812	977.8907470703125	206.9811859130859	838.4276123046875	976.6986083984375	77.86538696289062	842.8109130859375	1034.19140625	146.6973419189453	1071.97900390625	1212.610107421875	109.3434371948242	828.961669921875	1155.857177734375	135.4997100830078	872.8463745117188	1401.52685546875	105.8171157836914	1028.092041015625	1337.441284179688	102.3735656738281	825.2191162109375	1268.188110351562	186.2361907958984	857.5633544921875	1360.263916015625	6.662006378173828	939.849609375	1372.995727539062	-55.45096588134766	920.583984375	1249.93359375	-117.3194427490234	944.1141357421875	1044.380615234375	-119.0932083129883	882.5722045898438	1034.05078125	-61.37555694580078	1042.881958007812	804.9163818359375	-63.70950698852539	1001.830139160156	791.4320068359375	-117.5978622436523	960.6605834960938	940.526611328125	-120.1298751831055	1046.660888671875	644.5939331054688	-52.51876831054688	998.5696411132812	721.598876953125	-108.6413345336914	1053.998168945312	725.9129028320312	-76.88752746582031	946.916015625	1390.958374023438	262.2160339355469	944.1729125976562	1331.517700195312	332.7359924316406	963.849365234375	1068.811401367188	390.5020141601562	898.1309814453125	1052.067749023438	322.7008972167969	1062.517211914062	838.5618286132812	332.4195251464844	1051.656005859375	829.4760131835938	407.503662109375	993.0982055664062	1001.989929199219	396.6289367675781	1087.647338867188	668.5394287109375	346.5311889648438	1101.198974609375	741.19873046875	344.8532409667969	1070.629638671875	745.7344970703125	407.7606506347656	926.1847534179688	1604.628295898438	177.7995910644531	1096.46240234375	1609.980224609375	57.71940231323242	1087.509765625	1613.620727539062	158.4610290527344	911.7802124023438	1595.218627929688	34.16498184204102	916.1646118164062	913.6323852539062	-29.8779182434082	930.6065673828125	921.6004028320312	311.0578002929688	1032.745971679688	948.1900024414062	260.7690734863281	1039.411499023438	940.1456909179688	20.99963188171387	994.3082885742188	453.4148864746094	-19.99016761779785	980.4419555664062	594.4793090820312	-30.1402645111084	903.6234130859375	40.41863250732422	0.9176653623580933	949.8928833007812	239.3299713134766	-18.65069389343262	1111.887817382812	34.7892951965332	49.05136489868164	1044.592529296875	19.44770240783691	93.48959350585938	1028.80419921875	36.38346481323242	-18.35349082946777	872.58984375	34.37529373168945	69.57833862304688	970.595947265625	453.1353454589844	292.2778015136719	1002.22412109375	713.3489990234375	312.9359436035156	918.1446533203125	39.99543762207031	267.2109985351562	979.3212280273438	333.950927734375	278.9990539550781	1103.973510742188	39.98500061035156	198.9226531982422	1045.263916015625	33.35654067993164	162.594482421875	1019.5224609375	27.10003280639648	277.4588928222656	863.2283325195312	41.99134063720703	224.7543640136719	nan	nan	nan	
4	0.03	846.7919311523438	977.6605834960938	206.4592437744141	838.9968872070312	976.5332641601562	77.36215972900391	843.167236328125	1034.058959960938	146.1846618652344	1072.134399414062	1212.75537109375	109.3275146484375	829.3193969726562	1155.7265625	135.0644683837891	872.7886962890625	1401.521484375	105.6267852783203	1028.181274414062	1337.523071289062	102.3342819213867	825.2901611328125	1267.994506835938	185.8611450195312	857.7994384765625	1360.225952148438	6.308767318725586	940.1885986328125	1372.962768554688	-55.61239242553711	921.8416748046875	1249.791137695312	-117.5941009521484	947.17333984375	1044.3330078125	-119.2280883789062	884.8348388671875	1033.517578125	-62.43664169311523	1047.341064453125	805.9609375	-61.62990951538086	1007.473449707031	791.950927734375	-116.1926956176758	964.7348022460938	940.6072387695312	-119.7653732299805	1052.537475585938	645.615966796875	-49.80494689941406	1004.829345703125	722.1270141601562	-107.1113891601562	1059.526611328125	727.0821533203125	-74.30702972412109	946.7971801757812	1390.764770507812	262.2233276367188	944.2551879882812	1331.210815429688	332.6783142089844	965.1405639648438	1068.301879882812	389.7574157714844	899.9915161132812	1051.263061523438	321.4041748046875	1065.7109375	838.9049682617188	331.7239379882812	1054.154418945312	829.54248046875	406.7356262207031	994.677734375	1001.701171875	395.9020385742188	1092.350219726562	669.201416015625	345.8271484375	1105.195434570312	741.9523315429688	344.4807739257812	1073.914184570312	746.0609130859375	407.0710754394531	925.2135620117188	1604.375610351562	178.2165374755859	1095.255493164062	1610.988159179688	57.92771911621094	1086.378173828125	1614.302856445312	158.7065887451172	910.6290893554688	1595.237060546875	34.57870864868164	916.8507690429688	913.5426635742188	-30.26739120483398	930.9518432617188	921.6139526367188	310.7398071289062	1033.077880859375	948.2355346679688	260.5523986816406	1040.08349609375	940.1822509765625	20.83126068115234	992.5511474609375	453.3716735839844	-20.72645378112793	979.30419921875	594.8007202148438	-31.01823616027832	903.695068359375	40.42203903198242	0.9315961599349976	949.013671875	239.2754058837891	-18.82037925720215	1111.912719726562	34.50314712524414	49.05857086181641	1044.587280273438	19.39218711853027	93.56020355224609	1028.930297851562	36.09911346435547	-18.31149291992188	872.5967407226562	34.37554550170898	69.57132720947266	971.0443115234375	453.0606689453125	292.1147766113281	1002.559997558594	713.4241333007812	312.7887878417969	918.0674438476562	40.15261077880859	267.1061706542969	979.6277465820312	334.0338439941406	278.7315368652344	1103.88671875	40.49918746948242	199.2900543212891	1045.317016601562	33.49326705932617	162.7001647949219	1019.515808105469	27.10239410400391	277.5750122070312	863.2728881835938	42.08413314819336	224.5070953369141	nan	nan	nan	
